<?xml version="1.0" encoding="UTF-8" standalone="no"?>
<!-- Created with Inkscape (http://www.inkscape.org/) -->

<svg
   width="100.0px"
   height="100.0px"
   viewBox="0 0 100.0 100.0"
   version="1.1"
   id="SVGRoot"
   sodipodi:docname="icon.svg"
   inkscape:version="1.1.2 (0a00cf5339, 2022-02-04)"
   xmlns:inkscape="http://www.inkscape.org/namespaces/inkscape"
   xmlns:sodipodi="http://sodipodi.sourceforge.net/DTD/sodipodi-0.dtd"
   xmlns="http://www.w3.org/2000/svg"
   xmlns:svg="http://www.w3.org/2000/svg">
  <sodipodi:namedview
     id="namedview9473"
     pagecolor="#505050"
     bordercolor="#eeeeee"
     borderopacity="1"
     inkscape:pageshadow="0"
     inkscape:pageopacity="0"
     inkscape:pagecheckerboard="0"
     inkscape:document-units="px"
     showgrid="true"
     inkscape:zoom="5.9794052"
     inkscape:cx="42.479142"
     inkscape:cy="50.172215"
     inkscape:window-width="1920"
     inkscape:window-height="1011"
     inkscape:window-x="0"
     inkscape:window-y="32"
     inkscape:window-maximized="1"
     inkscape:current-layer="layer1">
    <inkscape:grid
       type="xygrid"
       id="grid9479" />
  </sodipodi:namedview>
  <defs
     id="defs9468" />
  <g
     inkscape:label="Layer 1"
     inkscape:groupmode="layer"
     id="layer1">
    <circle
       style="fill:#3d73da;fill-opacity:1"
       id="path9526"
       cx="50"
       cy="50"
       r="50" />
    <g
       transform="matrix(0.675,0,0,0.675,4.442,9.50725)"
       id="g157">
      <path
         class="st0"
         d="m 129.42,78.56 c -15.05,-7.2 -36.95,4.5 -37.79,4.95 -3.8,1.95 -6.81,2.55 -8.06,1.6 -1.19,-0.91 -2.19,-3.28 -2.2,-6.01 h -0.02 l 0.02,-0.24 c 0,-0.33 0.03,-0.66 0.07,-1 L 82.36,63.87 V 47.24 c 0,-0.37 -0.05,-0.74 -0.14,-1.1 C 80.4,23.61 60.67,6.83 38.15,8.64 18.14,10.26 2.26,26.15 0.66,46.16 0.57,46.52 0.52,46.89 0.52,47.26 v 26.61 c 0,2.62 2.13,4.75 4.75,4.75 2.62,0 4.75,-2.13 4.75,-4.75 v -7.76 c 0,-2.25 1.82,-4.07 4.07,-4.07 v 0 h 0.17 c 2.25,0 4.07,1.82 4.07,4.07 v 0 21.49 c 0,2.62 2.13,4.75 4.75,4.75 2.62,0 4.75,-2.13 4.75,-4.75 V 66.38 c 0,-2.4 1.94,-4.34 4.34,-4.34 h 0.2 c 2.4,0 4.34,1.94 4.34,4.34 v 29.35 c 0.01,2.62 2.13,4.74 4.75,4.75 v 0 c 2.62,-0.01 4.74,-2.13 4.75,-4.75 V 76.02 c 0,0 -0.1,-1.29 -0.13,-1.52 -0.01,-0.13 -0.02,-0.27 -0.02,-0.4 v -7.72 c 0,-2.4 1.94,-4.34 4.34,-4.34 h 0.2 c 2.4,0 4.34,1.94 4.34,4.34 v 7.72 c 0,0.15 -0.01,0.29 -0.03,0.44 -0.02,0.2 -0.11,1.78 -0.11,1.78 V 87.6 c 0,2.62 2.13,4.75 4.75,4.75 2.62,0 4.75,-2.13 4.75,-4.75 V 77 c 0,0 -0.16,-2.51 -0.16,-2.89 v -7.72 c 0,-2.4 1.94,-4.34 4.34,-4.34 0,0 0,0 0,0 h 0.2 c 2.4,0 4.34,1.94 4.34,4.34 v 7.6 L 73,74.37 c 0,0.07 -0.02,0.14 -0.02,0.21 0,0.01 0,0.02 0,0.02 -0.35,5.79 0.3,13.51 5.38,17.39 1.96,1.49 4.37,2.27 6.83,2.22 3.05,0 6.56,-1.01 10.51,-3.04 5.23,-2.83 20.81,-9.22 30.02,-4.8 2.13,1.07 4.73,0.2 5.8,-1.93 1.07,-2.13 0.2,-4.73 -1.93,-5.8 -0.04,-0.02 -0.09,-0.04 -0.14,-0.07 z"
         style="fill:#3baee4"
         id="path143" />
      <path
         class="st1"
         d="m 28.41,36.73 c -0.78,6.05 5.81,10.21 11.32,8.97 6.34,-1.42 7.43,-10.85 2.84,-14.71 -3.47,-2.91 -8.37,-2.79 -11.51,0.56 -1.62,1.73 -2.44,3.5 -2.65,5.18 z"
         style="fill:#ffffff"
         id="path145" />
      <path
         d="m 36.49,40.91 c 1.49,0.27 2.55,-1.68 1.45,-2.78 -0.88,-0.88 -2.42,-0.79 -2.71,0.44 -0.24,1.03 0.12,2.14 1.26,2.34 z"
         id="path147" />
      <path
         class="st1"
         d="m 48.57,38.1 c -0.62,4.83 4.63,8.14 9.03,7.16 5.06,-1.13 5.93,-8.66 2.27,-11.73 -2.77,-2.32 -6.68,-2.23 -9.18,0.44 -1.3,1.37 -1.95,2.78 -2.12,4.13 z"
         style="fill:#ffffff"
         id="path149" />
      <path
         d="m 54.16,40.73 c 1.19,0.21 2.04,-1.34 1.16,-2.22 -0.7,-0.7 -1.93,-0.63 -2.17,0.36 -0.19,0.81 0.09,1.7 1.01,1.86 z"
         id="path151" />
      <path
         class="st0"
         d="m 39.68,3.68 v 0 c 1.1,0 1.99,0.89 1.99,1.99 v 5.68 c 0,1.1 -0.89,1.99 -1.99,1.99 v 0 c -1.1,0 -1.99,-0.89 -1.99,-1.99 V 5.67 c 0,-1.1 0.89,-1.99 1.99,-1.99 z"
         style="fill:#3baee4"
         id="path153" />
      <circle
         class="st0"
         cx="39.68"
         cy="3.4300001"
         r="3.4300001"
         style="fill:#3baee4"
         id="circle155" />
    </g>
  </g>
</svg>
